HIERARCHY
ROOT RootJoint
{
    OFFSET   0.000000   0.000000   0.000000
    CHANNELS 6 Xposition Yposition Zposition Xrotation Yrotation Zrotation
    JOINT pelvis_lowerback
    {
        OFFSET   0.000000   0.093605   0.000000
        CHANNELS 3 Xrotation Yrotation Zrotation
        JOINT lowerback_torso
        {
            OFFSET   0.000000   0.100000   0.000000
            CHANNELS 3 Xrotation Yrotation Zrotation
            JOINT torso_head
            {
                OFFSET   0.000000   0.282350   0.000000
                CHANNELS 3 Xrotation Yrotation Zrotation
                End Site
                {
                    OFFSET   0.000000   0.192650   0.000000
                }
            }
            JOINT rTorso_Clavicle
            {
                OFFSET  -0.001000   0.157500   0.000000
                CHANNELS 3 Xrotation Yrotation Zrotation
                JOINT rShoulder
                {
                    OFFSET  -0.117647   0.000000   0.000000
                    CHANNELS 3 Xrotation Yrotation Zrotation
                    JOINT rElbow
                    {
                        OFFSET  -0.245000   0.000000   0.000000
                        CHANNELS 3 Xrotation Yrotation Zrotation
                        JOINT rWrist
                        {
                            OFFSET  -0.240000   0.000000   0.000000
                            CHANNELS 3 Xrotation Yrotation Zrotation
                            End Site
                            {
                                OFFSET  -0.116353  -0.002500   0.000000
                            }
                        }
                    }
                }
            }
            JOINT lTorso_Clavicle
            {
                OFFSET   0.001000   0.157500   0.000000
                CHANNELS 3 Xrotation Yrotation Zrotation
                JOINT lShoulder
                {
                    OFFSET   0.117647   0.000000   0.000000
                    CHANNELS 3 Xrotation Yrotation Zrotation
                    JOINT lElbow
                    {
                        OFFSET   0.245000   0.000000   0.000000
                        CHANNELS 3 Xrotation Yrotation Zrotation
                        JOINT lWrist
                        {
                            OFFSET   0.240000   0.000000   0.000000
                            CHANNELS 3 Xrotation Yrotation Zrotation
                            End Site
                            {
                                OFFSET   0.116353  -0.002500   0.000000
                            }
                        }
                    }
                }
            }
        }
    }
    JOINT rHip
    {
        OFFSET  -0.100000  -0.051395   0.000000
        CHANNELS 3 Xrotation Yrotation Zrotation
        JOINT rKnee
        {
            OFFSET   0.000000  -0.410000   0.000000
            CHANNELS 3 Xrotation Yrotation Zrotation
            JOINT rAnkle
            {
                OFFSET   0.000000  -0.390000   0.000000
                CHANNELS 3 Xrotation Yrotation Zrotation
                JOINT rToeJoint
                {
                    OFFSET   0.000000  -0.050000   0.130000
                    CHANNELS 3 Xrotation Yrotation Zrotation
                    End Site
                    {
                        OFFSET  -0.010000   0.002000   0.060000
                    }
                }
            }
        }
    }
    JOINT lHip
    {
        OFFSET   0.100000  -0.051395   0.000000
        CHANNELS 3 Xrotation Yrotation Zrotation
        JOINT lKnee
        {
            OFFSET   0.000000  -0.410000   0.000000
            CHANNELS 3 Xrotation Yrotation Zrotation
            JOINT lAnkle
            {
                OFFSET   0.000000  -0.390000   0.000000
                CHANNELS 3 Xrotation Yrotation Zrotation
                JOINT lToeJoint
                {
                    OFFSET   0.000000  -0.050000   0.130000
                    CHANNELS 3 Xrotation Yrotation Zrotation
                    End Site
                    {
                        OFFSET   0.010000   0.002000   0.060000
                    }
                }
            }
        }
    }
}
MOTION
Frames: 8
Frame Time:   0.008333
 -2.442664   0.850466   5.231952  -8.565416   2.320893  -3.762346  12.424685  -3.728846   2.035432   4.588016  -3.212638   4.051112  -1.291553  -0.385566  -0.013955   3.426061   2.251097  14.640068  12.044186   8.735067  41.417135  -0.009242   7.748558  -0.000057   9.608986   1.586571   0.898088   1.343717  -6.825575 -13.508006   5.173002 -22.021343 -41.931136  -0.033290 -23.941048  -0.004848  10.058472  -4.017200   0.982257 -19.953432  -5.016021   4.413697  43.931728   0.000043   0.001988 -14.990745  -6.555595  -2.848474  -0.495066  -0.000382   0.000077   6.831594  -2.276654  11.081219  73.052002  -0.003050  -0.004108   3.565631  -2.817033  -1.534289  -7.621752   0.000248   0.027608
 -2.444379   0.853159   5.242264  -8.624597   1.733422  -3.812587  12.453401  -3.348008   1.955351   4.501837  -3.112404   3.976235  -1.185811  -0.361720   0.094666   3.289670   2.503148  14.577529  11.475487   9.196856  41.133820  -0.012022   8.667154   0.000944   9.658630   1.411772   0.738765   1.463988  -6.761393 -13.614570   5.946418 -21.699561 -42.154459  -0.035769 -22.639781  -0.007816  10.048116  -4.025339   0.844811 -18.847661  -4.801262   4.719799  43.330813   0.001369   0.003253 -15.434677  -6.182427  -2.993829  -0.542558  -0.000296   0.000061   5.118676  -2.026673  10.865419  74.471012  -0.002133  -0.004912   2.542282  -2.165658  -1.486106  -6.900620  -0.000307   0.024997
 -2.445962   0.856095   5.252373  -8.682832   1.139889  -3.833981  12.505924  -2.971261   1.859537   4.427708  -2.992982   3.882041  -1.081438  -0.344803   0.196426   3.104115   2.779012  14.507549  10.900677   9.678601  40.863560  -0.014240   9.561613   0.001470   9.698223   1.428847   0.511940   1.615022  -6.687981 -13.706887   6.700291 -21.378746 -42.372808  -0.037309 -21.402677  -0.009997  10.031359  -3.929267   0.606981 -17.697459  -4.557630   4.972515  42.594529   0.002615   0.004747 -15.792054  -5.798624  -3.133992  -0.577814  -0.000235   0.000049   3.320568  -1.781613  10.605403  75.658926  -0.001407  -0.005691   1.570570  -1.557805  -1.430162  -6.311199  -0.000558   0.021958
 -2.447452   0.859060   5.262417  -8.756144   0.555841  -3.837881  12.568537  -2.585697   1.754807   4.368783  -2.845569   3.776679  -0.978716  -0.330389   0.290256   2.904725   3.060776  14.427224  10.347146  10.151137  40.605581  -0.015825  10.409337   0.001450   9.734355   1.533967   0.255384   1.778373  -6.602726 -13.786929   7.419618 -21.068672 -42.584723  -0.037550 -20.241135  -0.010900  10.012915  -3.792412   0.323629 -16.513255  -4.290920   5.185403  41.800536   0.003579   0.006097 -16.114195  -5.423305  -3.270103  -0.602688  -0.000190   0.000039   1.497059  -1.556043  10.333650  76.699128  -0.000971  -0.006311   0.658954  -0.991958  -1.368445  -5.784887  -0.000697   0.019028
 -2.448874   0.861924   5.272468  -8.846522  -0.015329  -3.830901  12.631576  -2.192285   1.644697   4.320616  -2.674989   3.664415  -0.879411  -0.316733   0.376864   2.705592   3.337561  14.336982   9.823423  10.603865  40.358268  -0.016840  11.206197   0.001128   9.769620   1.671576  -0.016166   1.948266  -6.505917 -13.854441   8.103404 -20.769354 -42.786535  -0.036698 -19.152155  -0.010791   9.995257  -3.636017   0.027089 -15.310123  -4.007561   5.364480  40.995074   0.004229   0.007169 -16.429199  -5.059685  -3.398853  -0.619824  -0.000154   0.000031  -0.314634  -1.350119  10.067405  77.629044  -0.000789  -0.006728  -0.194932  -0.465031  -1.302764  -5.311291  -0.000781   0.016334
 -2.450237   0.864614   5.282558  -8.950875  -0.573859  -3.818250  12.688860  -1.796011   1.532158   4.278283  -2.487773   3.548940  -0.785037  -0.303392   0.456878   2.512423   3.604362  14.239008   9.331573  11.033102  40.121159  -0.017362  11.952588   0.000711   9.804699   1.817994  -0.296335   2.121578  -6.399243 -13.909746   8.752496 -20.480419 -42.976429  -0.035055 -18.131351  -0.010037   9.979441  -3.465289  -0.267979 -14.101494  -3.712426   5.514440  40.204389   0.004598   0.007939 -16.752044  -4.707659  -3.517752  -0.631314  -0.000126   0.000025  -2.090749  -1.162427   9.816299  78.469586  -0.000804  -0.006953  -0.994205   0.025765  -1.234578  -4.883888  -0.000842   0.013920
 -2.451551   0.867092   5.292699  -9.064283  -1.120937  -3.803835  12.736639  -1.402253   1.419660   4.237770  -2.290059   3.433396  -0.696513  -0.290316   0.530874   2.327457   3.859097  14.136328   8.871086  11.438166  39.894642  -0.017470  12.650608   0.000328   9.839662   1.963822  -0.580930   2.295609  -6.285332 -13.953984   9.367617 -20.202210 -43.154037  -0.032897 -17.174653  -0.008948   9.965935  -3.283003  -0.554998 -12.898343  -3.408957   5.639076  39.442551   0.004742   0.008431 -17.090102  -4.366142  -3.625298  -0.638696  -0.000102   0.000020  -3.815941  -0.991661   9.585214  79.234521  -0.000961  -0.007019  -1.742074   0.482987  -1.165043  -4.497457  -0.000895   0.011787
 -2.452750   0.869843   5.302832  -9.178346  -1.807124  -3.737168  12.788831  -1.018263   1.263388   4.225488  -2.122472   3.251045  -0.641825  -0.287990   0.615571   2.160040   4.079498  14.055324   8.221271  11.987539  39.634911  -0.019749  13.648156   0.001584   9.880659   1.793655  -0.708674   2.462022  -6.104286 -13.987244  10.165711 -19.806558 -43.263940  -0.030972 -16.316876  -0.009056   9.953315  -3.287979  -0.807838 -11.655605  -3.069251   5.655165  38.553966   0.005147   0.010252 -17.311511  -3.886752  -3.570484  -0.676005  -0.000047   0.000016  -5.407228  -0.653530   9.309950  79.179069  -0.000767  -0.005493  -2.778408   1.117347  -1.052281  -4.287894  -0.000848   0.010028
